<svg width="855" height="323" viewBox="0 0 855 323" fill="none" xmlns="http://www.w3.org/2000/svg">
<path opacity="0.06" d="M0.5 261.289H150.146V316.093H213.171V261.289H251.838V208.464H213.171V4.31836H130.66L0.5 209.377V261.289ZM151.364 208.464H66.8739V206.028L148.928 76.1727H151.364V208.464Z" fill="white" fill-opacity="0.9"/>
<path opacity="0.06" d="M426.575 322.944C504.975 322.944 552.32 263.268 552.472 160.51C552.624 58.5137 504.671 0.0559082 426.575 0.0559082C348.327 0.0559082 300.83 58.3614 300.678 160.51C300.373 262.964 348.022 322.792 426.575 322.944ZM426.575 268.292C390.8 268.292 367.66 232.365 367.813 160.51C367.965 89.7216 390.952 54.0989 426.575 54.0989C462.045 54.0989 485.185 89.7216 485.185 160.51C485.337 232.365 462.198 268.292 426.575 268.292Z" fill="white" fill-opacity="0.9"/>
<path opacity="0.06" d="M603.329 261.289H752.975V316.093H816V261.289H854.667V208.464H816V4.31836H733.489L603.329 209.377V261.289ZM754.193 208.464H669.703V206.028L751.757 76.1727H754.193V208.464Z" fill="white" fill-opacity="0.9"/>
</svg>
